<?xml version="1.0" encoding="UTF-8" standalone="no"?>
<!DOCTYPE svg PUBLIC "-//W3C//DTD SVG 1.1//EN"
 "http://www.w3.org/Graphics/SVG/1.1/DTD/svg11.dtd">
<!-- Generated by graphviz version 2.43.0 (0)
 -->
<!-- Title: %3 Pages: 1 -->
<svg width="1007pt" height="238pt"
 viewBox="0.00 0.00 1007.00 237.74" xmlns="http://www.w3.org/2000/svg" xmlns:xlink="http://www.w3.org/1999/xlink">
<g id="graph0" class="graph" transform="scale(1 1) rotate(0) translate(36 201.74)">
<title>%3</title>
<polygon fill="dimgray" stroke="transparent" points="-36,36 -36,-201.74 971,-201.74 971,36 -36,36"/>
<text text-anchor="middle" x="467.5" y="-150.54" font-family="Helvetica,sans-Serif" font-size="14.00">Sweep&#39;s Plan &amp; Progress</text>
<!-- start -->
<g id="node1" class="node">
<title>start</title>
</g>
<!-- 7149870c&#45;54e6&#45;48f2&#45;bb95&#45;b6168ad1d45b -->
<g id="node3" class="node">
<title>7149870c&#45;54e6&#45;48f2&#45;bb95&#45;b6168ad1d45b</title>
<ellipse fill="#0ee832" stroke="black" cx="236.5" cy="-99.87" rx="152.06" ry="26.74"/>
<text text-anchor="middle" x="236.5" y="-103.67" font-family="Helvetica,sans-Serif" font-size="14.00">✓ Create</text>
<text text-anchor="middle" x="236.5" y="-88.67" font-family="Helvetica,sans-Serif" font-size="14.00">tests/sample_ocr_image.png</text>
</g>
<!-- start&#45;&gt;7149870c&#45;54e6&#45;48f2&#45;bb95&#45;b6168ad1d45b -->
<g id="edge4" class="edge">
<title>start&#45;&gt;7149870c&#45;54e6&#45;48f2&#45;bb95&#45;b6168ad1d45b</title>
<path fill="none" stroke="black" d="M33.09,-99.87C36.29,-99.87 52.39,-99.87 74.23,-99.87"/>
<polygon fill="black" stroke="black" points="74.28,-103.37 84.28,-99.87 74.28,-96.37 74.28,-103.37"/>
<text text-anchor="middle" x="58.74" y="-106.67" font-family="Helvetica,sans-Serif" font-size="14.00">Start</text>
</g>
<!-- end -->
<g id="node2" class="node">
<title>end</title>
</g>
<!-- 4338bb07&#45;6fbd&#45;443f&#45;9c8b&#45;c340f351dfc0 -->
<g id="node4" class="node">
<title>4338bb07&#45;6fbd&#45;443f&#45;9c8b&#45;c340f351dfc0</title>
<ellipse fill="#0ee832" stroke="black" cx="658.5" cy="-99.87" rx="217.58" ry="26.74"/>
<text text-anchor="middle" x="658.5" y="-103.67" font-family="Helvetica,sans-Serif" font-size="14.00">✓ Modify</text>
<text text-anchor="middle" x="658.5" y="-88.67" font-family="Helvetica,sans-Serif" font-size="14.00">tests/test_selenium_appeal_generation.py</text>
</g>
<!-- 7149870c&#45;54e6&#45;48f2&#45;bb95&#45;b6168ad1d45b&#45;&gt;4338bb07&#45;6fbd&#45;443f&#45;9c8b&#45;c340f351dfc0 -->
<g id="edge2" class="edge">
<title>7149870c&#45;54e6&#45;48f2&#45;bb95&#45;b6168ad1d45b&#45;&gt;4338bb07&#45;6fbd&#45;443f&#45;9c8b&#45;c340f351dfc0</title>
<path fill="none" stroke="black" d="M388.57,-99.87C402.5,-99.87 416.43,-99.87 430.36,-99.87"/>
<polygon fill="black" stroke="black" points="430.5,-103.37 440.5,-99.87 430.5,-96.37 430.5,-103.37"/>
</g>
<!-- 7183b155&#45;10e1&#45;4e4f&#45;a583&#45;99ee7c1ddf19 -->
<g id="node5" class="node">
<title>7183b155&#45;10e1&#45;4e4f&#45;a583&#45;99ee7c1ddf19</title>
<polygon fill="#0ee832" stroke="black" points="407,-36 0,-36 0,0 407,0 407,-36"/>
<text text-anchor="middle" x="203.5" y="-14.3" font-family="Helvetica,sans-Serif" font-size="14.00">✓ Run GitHub Actions for `tests/sample_ocr_image.png`</text>
</g>
<!-- 7149870c&#45;54e6&#45;48f2&#45;bb95&#45;b6168ad1d45b&#45;&gt;7183b155&#45;10e1&#45;4e4f&#45;a583&#45;99ee7c1ddf19 -->
<g id="edge1" class="edge">
<title>7149870c&#45;54e6&#45;48f2&#45;bb95&#45;b6168ad1d45b&#45;&gt;7183b155&#45;10e1&#45;4e4f&#45;a583&#45;99ee7c1ddf19</title>
<path fill="none" stroke="black" stroke-dasharray="5,2" d="M225.69,-72.72C222.09,-63.99 218.07,-54.26 214.45,-45.51"/>
<polygon fill="black" stroke="black" points="217.64,-44.05 210.58,-36.15 211.17,-46.73 217.64,-44.05"/>
</g>
<!-- 4338bb07&#45;6fbd&#45;443f&#45;9c8b&#45;c340f351dfc0&#45;&gt;end -->
<g id="edge5" class="edge">
<title>4338bb07&#45;6fbd&#45;443f&#45;9c8b&#45;c340f351dfc0&#45;&gt;end</title>
<path fill="none" stroke="black" d="M876.3,-99.87C896.54,-99.87 913.29,-99.87 923.54,-99.87"/>
<polygon fill="black" stroke="black" points="923.87,-103.37 933.87,-99.87 923.87,-96.37 923.87,-103.37"/>
<text text-anchor="middle" x="905.14" y="-106.67" font-family="Helvetica,sans-Serif" font-size="14.00">Finish</text>
</g>
<!-- 90627025&#45;3ce7&#45;444b&#45;b92a&#45;fcb507a969c2 -->
<g id="node6" class="node">
<title>90627025&#45;3ce7&#45;444b&#45;b92a&#45;fcb507a969c2</title>
<polygon fill="#0ee832" stroke="black" points="925.5,-36 425.5,-36 425.5,0 925.5,0 925.5,-36"/>
<text text-anchor="middle" x="675.5" y="-14.3" font-family="Helvetica,sans-Serif" font-size="14.00">✓ Run GitHub Actions for `tests/test_selenium_appeal_generation.py`</text>
</g>
<!-- 4338bb07&#45;6fbd&#45;443f&#45;9c8b&#45;c340f351dfc0&#45;&gt;90627025&#45;3ce7&#45;444b&#45;b92a&#45;fcb507a969c2 -->
<g id="edge3" class="edge">
<title>4338bb07&#45;6fbd&#45;443f&#45;9c8b&#45;c340f351dfc0&#45;&gt;90627025&#45;3ce7&#45;444b&#45;b92a&#45;fcb507a969c2</title>
<path fill="none" stroke="black" stroke-dasharray="5,2" d="M664.07,-72.72C665.88,-64.18 667.91,-54.68 669.74,-46.08"/>
<polygon fill="black" stroke="black" points="673.19,-46.66 671.85,-36.15 666.35,-45.2 673.19,-46.66"/>
</g>
</g>
</svg>
