<?xml version="1.0" encoding="UTF-8" standalone="no"?>
<!DOCTYPE svg PUBLIC "-//W3C//DTD SVG 1.1//EN"
 "http://www.w3.org/Graphics/SVG/1.1/DTD/svg11.dtd">
<!-- Generated by graphviz version 2.43.0 (0)
 -->
<!-- Title: %3 Pages: 1 -->
<svg width="1010pt" height="238pt"
 viewBox="0.00 0.00 1009.50 237.74" xmlns="http://www.w3.org/2000/svg" xmlns:xlink="http://www.w3.org/1999/xlink">
<g id="graph0" class="graph" transform="scale(1 1) rotate(0) translate(36 201.74)">
<title>%3</title>
<polygon fill="dimgray" stroke="transparent" points="-36,36 -36,-201.74 973.5,-201.74 973.5,36 -36,36"/>
<text text-anchor="middle" x="468.75" y="-150.54" font-family="Helvetica,sans-Serif" font-size="14.00">Sweep&#39;s Plan &amp; Progress</text>
<!-- start -->
<g id="node1" class="node">
<title>start</title>
</g>
<!-- 7149870c&#45;54e6&#45;48f2&#45;bb95&#45;b6168ad1d45b -->
<g id="node3" class="node">
<title>7149870c&#45;54e6&#45;48f2&#45;bb95&#45;b6168ad1d45b</title>
<ellipse fill="#0ee832" stroke="black" cx="239" cy="-99.87" rx="152.06" ry="26.74"/>
<text text-anchor="middle" x="239" y="-103.67" font-family="Helvetica,sans-Serif" font-size="14.00">✓ Create</text>
<text text-anchor="middle" x="239" y="-88.67" font-family="Helvetica,sans-Serif" font-size="14.00">tests/sample_ocr_image.png</text>
</g>
<!-- start&#45;&gt;7149870c&#45;54e6&#45;48f2&#45;bb95&#45;b6168ad1d45b -->
<g id="edge4" class="edge">
<title>start&#45;&gt;7149870c&#45;54e6&#45;48f2&#45;bb95&#45;b6168ad1d45b</title>
<path fill="none" stroke="black" d="M35.59,-99.87C38.79,-99.87 54.89,-99.87 76.73,-99.87"/>
<polygon fill="black" stroke="black" points="76.78,-103.37 86.78,-99.87 76.78,-96.37 76.78,-103.37"/>
<text text-anchor="middle" x="61.24" y="-106.67" font-family="Helvetica,sans-Serif" font-size="14.00">Start</text>
</g>
<!-- end -->
<g id="node2" class="node">
<title>end</title>
</g>
<!-- 4338bb07&#45;6fbd&#45;443f&#45;9c8b&#45;c340f351dfc0 -->
<g id="node4" class="node">
<title>4338bb07&#45;6fbd&#45;443f&#45;9c8b&#45;c340f351dfc0</title>
<ellipse fill="white" stroke="black" cx="661" cy="-99.87" rx="217.58" ry="26.74"/>
<text text-anchor="middle" x="661" y="-103.67" font-family="Helvetica,sans-Serif" font-size="14.00">▶ Modify</text>
<text text-anchor="middle" x="661" y="-88.67" font-family="Helvetica,sans-Serif" font-size="14.00">tests/test_selenium_appeal_generation.py</text>
</g>
<!-- 7149870c&#45;54e6&#45;48f2&#45;bb95&#45;b6168ad1d45b&#45;&gt;4338bb07&#45;6fbd&#45;443f&#45;9c8b&#45;c340f351dfc0 -->
<g id="edge2" class="edge">
<title>7149870c&#45;54e6&#45;48f2&#45;bb95&#45;b6168ad1d45b&#45;&gt;4338bb07&#45;6fbd&#45;443f&#45;9c8b&#45;c340f351dfc0</title>
<path fill="none" stroke="black" d="M391.07,-99.87C405,-99.87 418.93,-99.87 432.86,-99.87"/>
<polygon fill="black" stroke="black" points="433,-103.37 443,-99.87 433,-96.37 433,-103.37"/>
</g>
<!-- 7183b155&#45;10e1&#45;4e4f&#45;a583&#45;99ee7c1ddf19 -->
<g id="node5" class="node">
<title>7183b155&#45;10e1&#45;4e4f&#45;a583&#45;99ee7c1ddf19</title>
<polygon fill="yellow" stroke="black" points="410,-36 0,-36 0,0 410,0 410,-36"/>
<text text-anchor="middle" x="205" y="-14.3" font-family="Helvetica,sans-Serif" font-size="14.00">⋯ Run GitHub Actions for `tests/sample_ocr_image.png`</text>
</g>
<!-- 7149870c&#45;54e6&#45;48f2&#45;bb95&#45;b6168ad1d45b&#45;&gt;7183b155&#45;10e1&#45;4e4f&#45;a583&#45;99ee7c1ddf19 -->
<g id="edge1" class="edge">
<title>7149870c&#45;54e6&#45;48f2&#45;bb95&#45;b6168ad1d45b&#45;&gt;7183b155&#45;10e1&#45;4e4f&#45;a583&#45;99ee7c1ddf19</title>
<path fill="none" stroke="black" stroke-dasharray="5,2" d="M227.87,-72.72C224.15,-63.99 220.01,-54.26 216.29,-45.51"/>
<polygon fill="black" stroke="black" points="219.44,-43.98 212.3,-36.15 213,-46.72 219.44,-43.98"/>
</g>
<!-- 4338bb07&#45;6fbd&#45;443f&#45;9c8b&#45;c340f351dfc0&#45;&gt;end -->
<g id="edge5" class="edge">
<title>4338bb07&#45;6fbd&#45;443f&#45;9c8b&#45;c340f351dfc0&#45;&gt;end</title>
<path fill="none" stroke="black" d="M878.8,-99.87C899.04,-99.87 915.79,-99.87 926.04,-99.87"/>
<polygon fill="black" stroke="black" points="926.37,-103.37 936.37,-99.87 926.37,-96.37 926.37,-103.37"/>
<text text-anchor="middle" x="907.64" y="-106.67" font-family="Helvetica,sans-Serif" font-size="14.00">Finish</text>
</g>
<!-- 90627025&#45;3ce7&#45;444b&#45;b92a&#45;fcb507a969c2 -->
<g id="node6" class="node">
<title>90627025&#45;3ce7&#45;444b&#45;b92a&#45;fcb507a969c2</title>
<polygon fill="white" stroke="black" points="927.5,-36 428.5,-36 428.5,0 927.5,0 927.5,-36"/>
<text text-anchor="middle" x="678" y="-14.3" font-family="Helvetica,sans-Serif" font-size="14.00">▶ Run GitHub Actions for `tests/test_selenium_appeal_generation.py`</text>
</g>
<!-- 4338bb07&#45;6fbd&#45;443f&#45;9c8b&#45;c340f351dfc0&#45;&gt;90627025&#45;3ce7&#45;444b&#45;b92a&#45;fcb507a969c2 -->
<g id="edge3" class="edge">
<title>4338bb07&#45;6fbd&#45;443f&#45;9c8b&#45;c340f351dfc0&#45;&gt;90627025&#45;3ce7&#45;444b&#45;b92a&#45;fcb507a969c2</title>
<path fill="none" stroke="black" stroke-dasharray="5,2" d="M666.57,-72.72C668.38,-64.18 670.41,-54.68 672.24,-46.08"/>
<polygon fill="black" stroke="black" points="675.69,-46.66 674.35,-36.15 668.85,-45.2 675.69,-46.66"/>
</g>
</g>
</svg>
