<?xml version="1.0" encoding="UTF-8" standalone="no"?>
<!DOCTYPE svg PUBLIC "-//W3C//DTD SVG 1.1//EN"
 "http://www.w3.org/Graphics/SVG/1.1/DTD/svg11.dtd">
<!-- Generated by graphviz version 2.43.0 (0)
 -->
<!-- Title: %3 Pages: 1 -->
<svg width="1008pt" height="238pt"
 viewBox="0.00 0.00 1008.00 237.74" xmlns="http://www.w3.org/2000/svg" xmlns:xlink="http://www.w3.org/1999/xlink">
<g id="graph0" class="graph" transform="scale(1 1) rotate(0) translate(36 201.74)">
<title>%3</title>
<polygon fill="dimgray" stroke="transparent" points="-36,36 -36,-201.74 972,-201.74 972,36 -36,36"/>
<text text-anchor="middle" x="468" y="-150.54" font-family="Helvetica,sans-Serif" font-size="14.00">Sweep&#39;s Plan &amp; Progress</text>
<!-- start -->
<g id="node1" class="node">
<title>start</title>
</g>
<!-- 1be1ed74&#45;5fb8&#45;46b4&#45;994b&#45;51cbac93fce8 -->
<g id="node3" class="node">
<title>1be1ed74&#45;5fb8&#45;46b4&#45;994b&#45;51cbac93fce8</title>
<ellipse fill="#0ee832" stroke="black" cx="237.5" cy="-99.87" rx="152.06" ry="26.74"/>
<text text-anchor="middle" x="237.5" y="-103.67" font-family="Helvetica,sans-Serif" font-size="14.00">✓ Create</text>
<text text-anchor="middle" x="237.5" y="-88.67" font-family="Helvetica,sans-Serif" font-size="14.00">tests/sample_ocr_image.png</text>
</g>
<!-- start&#45;&gt;1be1ed74&#45;5fb8&#45;46b4&#45;994b&#45;51cbac93fce8 -->
<g id="edge4" class="edge">
<title>start&#45;&gt;1be1ed74&#45;5fb8&#45;46b4&#45;994b&#45;51cbac93fce8</title>
<path fill="none" stroke="black" d="M34.09,-99.87C37.29,-99.87 53.39,-99.87 75.23,-99.87"/>
<polygon fill="black" stroke="black" points="75.28,-103.37 85.28,-99.87 75.28,-96.37 75.28,-103.37"/>
<text text-anchor="middle" x="59.74" y="-106.67" font-family="Helvetica,sans-Serif" font-size="14.00">Start</text>
</g>
<!-- end -->
<g id="node2" class="node">
<title>end</title>
</g>
<!-- a279d42f&#45;bbb6&#45;4c4c&#45;8d07&#45;ff611d5e68c0 -->
<g id="node4" class="node">
<title>a279d42f&#45;bbb6&#45;4c4c&#45;8d07&#45;ff611d5e68c0</title>
<ellipse fill="#ee0000" stroke="black" cx="659.5" cy="-99.87" rx="217.58" ry="26.74"/>
<text text-anchor="middle" x="659.5" y="-103.67" font-family="Helvetica,sans-Serif" font-size="14.00">✗ Modify</text>
<text text-anchor="middle" x="659.5" y="-88.67" font-family="Helvetica,sans-Serif" font-size="14.00">tests/test_selenium_appeal_generation.py</text>
</g>
<!-- 1be1ed74&#45;5fb8&#45;46b4&#45;994b&#45;51cbac93fce8&#45;&gt;a279d42f&#45;bbb6&#45;4c4c&#45;8d07&#45;ff611d5e68c0 -->
<g id="edge2" class="edge">
<title>1be1ed74&#45;5fb8&#45;46b4&#45;994b&#45;51cbac93fce8&#45;&gt;a279d42f&#45;bbb6&#45;4c4c&#45;8d07&#45;ff611d5e68c0</title>
<path fill="none" stroke="black" d="M389.57,-99.87C403.5,-99.87 417.43,-99.87 431.36,-99.87"/>
<polygon fill="black" stroke="black" points="431.5,-103.37 441.5,-99.87 431.5,-96.37 431.5,-103.37"/>
</g>
<!-- 4bbb8a89&#45;fec9&#45;43e0&#45;adf5&#45;46beb46d1977 -->
<g id="node5" class="node">
<title>4bbb8a89&#45;fec9&#45;43e0&#45;adf5&#45;46beb46d1977</title>
<polygon fill="#0ee832" stroke="black" points="407,-36 0,-36 0,0 407,0 407,-36"/>
<text text-anchor="middle" x="203.5" y="-14.3" font-family="Helvetica,sans-Serif" font-size="14.00">✓ Run GitHub Actions for `tests/sample_ocr_image.png`</text>
</g>
<!-- 1be1ed74&#45;5fb8&#45;46b4&#45;994b&#45;51cbac93fce8&#45;&gt;4bbb8a89&#45;fec9&#45;43e0&#45;adf5&#45;46beb46d1977 -->
<g id="edge1" class="edge">
<title>1be1ed74&#45;5fb8&#45;46b4&#45;994b&#45;51cbac93fce8&#45;&gt;4bbb8a89&#45;fec9&#45;43e0&#45;adf5&#45;46beb46d1977</title>
<path fill="none" stroke="black" stroke-dasharray="5,2" d="M226.37,-72.72C222.65,-63.99 218.51,-54.26 214.79,-45.51"/>
<polygon fill="black" stroke="black" points="217.94,-43.98 210.8,-36.15 211.5,-46.72 217.94,-43.98"/>
</g>
<!-- a279d42f&#45;bbb6&#45;4c4c&#45;8d07&#45;ff611d5e68c0&#45;&gt;end -->
<g id="edge5" class="edge">
<title>a279d42f&#45;bbb6&#45;4c4c&#45;8d07&#45;ff611d5e68c0&#45;&gt;end</title>
<path fill="none" stroke="black" d="M877.3,-99.87C897.54,-99.87 914.29,-99.87 924.54,-99.87"/>
<polygon fill="black" stroke="black" points="924.87,-103.37 934.87,-99.87 924.87,-96.37 924.87,-103.37"/>
<text text-anchor="middle" x="906.14" y="-106.67" font-family="Helvetica,sans-Serif" font-size="14.00">Finish</text>
</g>
<!-- 6c500493&#45;b79d&#45;4f27&#45;aa96&#45;7e4772f9d7d9 -->
<g id="node6" class="node">
<title>6c500493&#45;b79d&#45;4f27&#45;aa96&#45;7e4772f9d7d9</title>
<polygon fill="yellow" stroke="black" points="928,-36 425,-36 425,0 928,0 928,-36"/>
<text text-anchor="middle" x="676.5" y="-14.3" font-family="Helvetica,sans-Serif" font-size="14.00">⋯ Run GitHub Actions for `tests/test_selenium_appeal_generation.py`</text>
</g>
<!-- a279d42f&#45;bbb6&#45;4c4c&#45;8d07&#45;ff611d5e68c0&#45;&gt;6c500493&#45;b79d&#45;4f27&#45;aa96&#45;7e4772f9d7d9 -->
<g id="edge3" class="edge">
<title>a279d42f&#45;bbb6&#45;4c4c&#45;8d07&#45;ff611d5e68c0&#45;&gt;6c500493&#45;b79d&#45;4f27&#45;aa96&#45;7e4772f9d7d9</title>
<path fill="none" stroke="black" stroke-dasharray="5,2" d="M665.07,-72.72C666.88,-64.18 668.91,-54.68 670.74,-46.08"/>
<polygon fill="black" stroke="black" points="674.19,-46.66 672.85,-36.15 667.35,-45.2 674.19,-46.66"/>
</g>
</g>
</svg>
