<?xml version="1.0" encoding="UTF-8" standalone="no"?>
<!DOCTYPE svg PUBLIC "-//W3C//DTD SVG 1.1//EN"
 "http://www.w3.org/Graphics/SVG/1.1/DTD/svg11.dtd">
<!-- Generated by graphviz version 2.43.0 (0)
 -->
<!-- Title: %3 Pages: 1 -->
<svg width="1007pt" height="238pt"
 viewBox="0.00 0.00 1007.00 237.74" xmlns="http://www.w3.org/2000/svg" xmlns:xlink="http://www.w3.org/1999/xlink">
<g id="graph0" class="graph" transform="scale(1 1) rotate(0) translate(36 201.74)">
<title>%3</title>
<polygon fill="dimgray" stroke="transparent" points="-36,36 -36,-201.74 971,-201.74 971,36 -36,36"/>
<text text-anchor="middle" x="467.5" y="-150.54" font-family="Helvetica,sans-Serif" font-size="14.00">Sweep&#39;s Plan &amp; Progress</text>
<!-- start -->
<g id="node1" class="node">
<title>start</title>
</g>
<!-- 708bb5aa&#45;9ca0&#45;432d&#45;a1a4&#45;398daee2498a -->
<g id="node3" class="node">
<title>708bb5aa&#45;9ca0&#45;432d&#45;a1a4&#45;398daee2498a</title>
<ellipse fill="#0ee832" stroke="black" cx="236.5" cy="-99.87" rx="152.06" ry="26.74"/>
<text text-anchor="middle" x="236.5" y="-103.67" font-family="Helvetica,sans-Serif" font-size="14.00">✓ Create</text>
<text text-anchor="middle" x="236.5" y="-88.67" font-family="Helvetica,sans-Serif" font-size="14.00">tests/sample_ocr_image.png</text>
</g>
<!-- start&#45;&gt;708bb5aa&#45;9ca0&#45;432d&#45;a1a4&#45;398daee2498a -->
<g id="edge4" class="edge">
<title>start&#45;&gt;708bb5aa&#45;9ca0&#45;432d&#45;a1a4&#45;398daee2498a</title>
<path fill="none" stroke="black" d="M33.09,-99.87C36.29,-99.87 52.39,-99.87 74.23,-99.87"/>
<polygon fill="black" stroke="black" points="74.28,-103.37 84.28,-99.87 74.28,-96.37 74.28,-103.37"/>
<text text-anchor="middle" x="58.74" y="-106.67" font-family="Helvetica,sans-Serif" font-size="14.00">Start</text>
</g>
<!-- end -->
<g id="node2" class="node">
<title>end</title>
</g>
<!-- 42b24fdb&#45;10f0&#45;4cff&#45;b03e&#45;efbba6b25522 -->
<g id="node4" class="node">
<title>42b24fdb&#45;10f0&#45;4cff&#45;b03e&#45;efbba6b25522</title>
<ellipse fill="white" stroke="black" cx="658.5" cy="-99.87" rx="217.58" ry="26.74"/>
<text text-anchor="middle" x="658.5" y="-103.67" font-family="Helvetica,sans-Serif" font-size="14.00">▶ Modify</text>
<text text-anchor="middle" x="658.5" y="-88.67" font-family="Helvetica,sans-Serif" font-size="14.00">tests/test_selenium_appeal_generation.py</text>
</g>
<!-- 708bb5aa&#45;9ca0&#45;432d&#45;a1a4&#45;398daee2498a&#45;&gt;42b24fdb&#45;10f0&#45;4cff&#45;b03e&#45;efbba6b25522 -->
<g id="edge2" class="edge">
<title>708bb5aa&#45;9ca0&#45;432d&#45;a1a4&#45;398daee2498a&#45;&gt;42b24fdb&#45;10f0&#45;4cff&#45;b03e&#45;efbba6b25522</title>
<path fill="none" stroke="black" d="M388.57,-99.87C402.5,-99.87 416.43,-99.87 430.36,-99.87"/>
<polygon fill="black" stroke="black" points="430.5,-103.37 440.5,-99.87 430.5,-96.37 430.5,-103.37"/>
</g>
<!-- 687b35f6&#45;8d32&#45;477d&#45;85dc&#45;78c325af004c -->
<g id="node5" class="node">
<title>687b35f6&#45;8d32&#45;477d&#45;85dc&#45;78c325af004c</title>
<polygon fill="#0ee832" stroke="black" points="407,-36 0,-36 0,0 407,0 407,-36"/>
<text text-anchor="middle" x="203.5" y="-14.3" font-family="Helvetica,sans-Serif" font-size="14.00">✓ Run GitHub Actions for `tests/sample_ocr_image.png`</text>
</g>
<!-- 708bb5aa&#45;9ca0&#45;432d&#45;a1a4&#45;398daee2498a&#45;&gt;687b35f6&#45;8d32&#45;477d&#45;85dc&#45;78c325af004c -->
<g id="edge1" class="edge">
<title>708bb5aa&#45;9ca0&#45;432d&#45;a1a4&#45;398daee2498a&#45;&gt;687b35f6&#45;8d32&#45;477d&#45;85dc&#45;78c325af004c</title>
<path fill="none" stroke="black" stroke-dasharray="5,2" d="M225.69,-72.72C222.09,-63.99 218.07,-54.26 214.45,-45.51"/>
<polygon fill="black" stroke="black" points="217.64,-44.05 210.58,-36.15 211.17,-46.73 217.64,-44.05"/>
</g>
<!-- 42b24fdb&#45;10f0&#45;4cff&#45;b03e&#45;efbba6b25522&#45;&gt;end -->
<g id="edge5" class="edge">
<title>42b24fdb&#45;10f0&#45;4cff&#45;b03e&#45;efbba6b25522&#45;&gt;end</title>
<path fill="none" stroke="black" d="M876.3,-99.87C896.54,-99.87 913.29,-99.87 923.54,-99.87"/>
<polygon fill="black" stroke="black" points="923.87,-103.37 933.87,-99.87 923.87,-96.37 923.87,-103.37"/>
<text text-anchor="middle" x="905.14" y="-106.67" font-family="Helvetica,sans-Serif" font-size="14.00">Finish</text>
</g>
<!-- f0a8ed6d&#45;8562&#45;4f77&#45;a9a2&#45;a0f85c51ab19 -->
<g id="node6" class="node">
<title>f0a8ed6d&#45;8562&#45;4f77&#45;a9a2&#45;a0f85c51ab19</title>
<polygon fill="white" stroke="black" points="924,-36 425,-36 425,0 924,0 924,-36"/>
<text text-anchor="middle" x="674.5" y="-14.3" font-family="Helvetica,sans-Serif" font-size="14.00">▶ Run GitHub Actions for `tests/test_selenium_appeal_generation.py`</text>
</g>
<!-- 42b24fdb&#45;10f0&#45;4cff&#45;b03e&#45;efbba6b25522&#45;&gt;f0a8ed6d&#45;8562&#45;4f77&#45;a9a2&#45;a0f85c51ab19 -->
<g id="edge3" class="edge">
<title>42b24fdb&#45;10f0&#45;4cff&#45;b03e&#45;efbba6b25522&#45;&gt;f0a8ed6d&#45;8562&#45;4f77&#45;a9a2&#45;a0f85c51ab19</title>
<path fill="none" stroke="black" stroke-dasharray="5,2" d="M663.74,-72.72C665.45,-64.18 667.35,-54.68 669.08,-46.08"/>
<polygon fill="black" stroke="black" points="672.53,-46.64 671.07,-36.15 665.67,-45.26 672.53,-46.64"/>
</g>
</g>
</svg>
