<?xml version="1.0" encoding="UTF-8" standalone="no"?>
<!DOCTYPE svg PUBLIC "-//W3C//DTD SVG 1.1//EN"
 "http://www.w3.org/Graphics/SVG/1.1/DTD/svg11.dtd">
<!-- Generated by graphviz version 2.43.0 (0)
 -->
<!-- Title: %3 Pages: 1 -->
<svg width="587pt" height="255pt"
 viewBox="0.00 0.00 587.00 255.48" xmlns="http://www.w3.org/2000/svg" xmlns:xlink="http://www.w3.org/1999/xlink">
<g id="graph0" class="graph" transform="scale(1 1) rotate(0) translate(36 219.48)">
<title>%3</title>
<polygon fill="dimgray" stroke="transparent" points="-36,36 -36,-219.48 551,-219.48 551,36 -36,36"/>
<text text-anchor="middle" x="257.5" y="-168.28" font-family="Helvetica,sans-Serif" font-size="14.00">Sweep&#39;s Plan &amp; Progress</text>
<!-- start -->
<g id="node1" class="node">
<title>start</title>
</g>
<!-- 1aebcea8&#45;2b26&#45;4ca7&#45;99a9&#45;ac91887c13d7 -->
<g id="node3" class="node">
<title>1aebcea8&#45;2b26&#45;4ca7&#45;99a9&#45;ac91887c13d7</title>
<ellipse fill="yellow" stroke="black" cx="254.5" cy="-117.61" rx="202.47" ry="26.74"/>
<text text-anchor="middle" x="254.5" y="-121.41" font-family="Helvetica,sans-Serif" font-size="14.00">⋯ Test</text>
<text text-anchor="middle" x="254.5" y="-106.41" font-family="Helvetica,sans-Serif" font-size="14.00">tests/test_selenium_server_side_ocr.py</text>
</g>
<!-- start&#45;&gt;1aebcea8&#45;2b26&#45;4ca7&#45;99a9&#45;ac91887c13d7 -->
<g id="edge2" class="edge">
<title>start&#45;&gt;1aebcea8&#45;2b26&#45;4ca7&#45;99a9&#45;ac91887c13d7</title>
<path fill="none" stroke="black" d="M1.23,-117.61C4.69,-117.61 20.2,-117.61 41.98,-117.61"/>
<polygon fill="black" stroke="black" points="42.04,-121.11 52.04,-117.61 42.04,-114.11 42.04,-121.11"/>
<text text-anchor="middle" x="26.63" y="-124.41" font-family="Helvetica,sans-Serif" font-size="14.00">Start</text>
</g>
<!-- end -->
<g id="node2" class="node">
<title>end</title>
</g>
<!-- 1aebcea8&#45;2b26&#45;4ca7&#45;99a9&#45;ac91887c13d7&#45;&gt;end -->
<g id="edge3" class="edge">
<title>1aebcea8&#45;2b26&#45;4ca7&#45;99a9&#45;ac91887c13d7&#45;&gt;end</title>
<path fill="none" stroke="black" d="M456.8,-117.61C476.76,-117.61 493.39,-117.61 503.59,-117.61"/>
<polygon fill="black" stroke="black" points="503.88,-121.11 513.88,-117.61 503.88,-114.11 503.88,-121.11"/>
<text text-anchor="middle" x="485.37" y="-124.41" font-family="Helvetica,sans-Serif" font-size="14.00">Finish</text>
</g>
<!-- 16771d28&#45;d95d&#45;4e03&#45;aa45&#45;07c9c954205d -->
<g id="node4" class="node">
<title>16771d28&#45;d95d&#45;4e03&#45;aa45&#45;07c9c954205d</title>
<ellipse fill="white" stroke="black" cx="254.5" cy="-26.87" rx="202.47" ry="26.74"/>
<text text-anchor="middle" x="254.5" y="-30.67" font-family="Helvetica,sans-Serif" font-size="14.00">▶ Test</text>
<text text-anchor="middle" x="254.5" y="-15.67" font-family="Helvetica,sans-Serif" font-size="14.00">tests/test_selenium_server_side_ocr.py</text>
</g>
<!-- 1aebcea8&#45;2b26&#45;4ca7&#45;99a9&#45;ac91887c13d7&#45;&gt;16771d28&#45;d95d&#45;4e03&#45;aa45&#45;07c9c954205d -->
<g id="edge1" class="edge">
<title>1aebcea8&#45;2b26&#45;4ca7&#45;99a9&#45;ac91887c13d7&#45;&gt;16771d28&#45;d95d&#45;4e03&#45;aa45&#45;07c9c954205d</title>
<path fill="none" stroke="black" d="M254.5,-90.47C254.5,-82.16 254.5,-72.82 254.5,-63.95"/>
<polygon fill="black" stroke="black" points="258,-63.83 254.5,-53.83 251,-63.83 258,-63.83"/>
</g>
</g>
</svg>
